<svg xmlns="http://www.w3.org/2000/svg" xmlns:xlink="http://www.w3.org/1999/xlink" width="397" zoomAndPan="magnify" viewBox="0 0 297.12 419.249996" height="559" preserveAspectRatio="xMidYMid meet" version="1.0"><defs><filter x="0%" y="0%" width="100%" height="100%" id="fe47713932"><feColorMatrix values="0 0 0 0 1 0 0 0 0 1 0 0 0 0 1 0 0 0 1 0" color-interpolation-filters="sRGB"/></filter><clipPath id="dc34b71f97"><path d="M 30.414062 31.066406 L 265.714844 31.066406 L 265.714844 386.820312 L 30.414062 386.820312 Z M 30.414062 31.066406 " clip-rule="nonzero"/></clipPath><clipPath id="ddef68e593"><path d="M 0.414062 0.0664062 L 235.714844 0.0664062 L 235.714844 355.820312 L 0.414062 355.820312 Z M 0.414062 0.0664062 " clip-rule="nonzero"/></clipPath><clipPath id="2eab570e0d"><rect x="0" width="236" y="0" height="356"/></clipPath><mask id="c16a78429d"><g filter="url(#fe47713932)"><rect x="-29.712" width="356.544" fill="#000000" y="-41.925" height="503.099995" fill-opacity="0.4"/></g></mask><clipPath id="02a75769f4"><path d="M 4.6875 4.304688 L 218.847656 4.304688 L 218.847656 334.085938 L 4.6875 334.085938 Z M 4.6875 4.304688 " clip-rule="nonzero"/></clipPath><clipPath id="f9c1ffe86c"><rect x="0" width="223" y="0" height="338"/></clipPath></defs><g clip-path="url(#dc34b71f97)"><g transform="matrix(1, 0, 0, 1, 30, 31)"><g clip-path="url(#2eab570e0d)"><g clip-path="url(#ddef68e593)"><path fill="#fff4de" d="M 0.414062 0.0664062 L 235.714844 0.0664062 L 235.714844 355.777344 L 0.414062 355.777344 Z M 0.414062 0.0664062 " fill-opacity="1" fill-rule="nonzero"/></g></g></g></g><g mask="url(#c16a78429d)"><g transform="matrix(1, 0, 0, 1, 37, 36)"><g clip-path="url(#f9c1ffe86c)"><g clip-path="url(#02a75769f4)"><path stroke-linecap="butt" transform="matrix(0.746195, 0, 0, 0.746195, 4.689047, 4.30539)" fill="none" stroke-linejoin="miter" d="M -0.00207335 -0.000941968 L 287.000728 -0.000941968 L 287.000728 441.949345 L -0.00207335 441.949345 Z M -0.00207335 -0.000941968 " stroke="#d0a889" stroke-width="2" stroke-opacity="1" stroke-miterlimit="4"/></g></g></g></g></svg>